<svg width="48" height="48" viewBox="0 0 48 48" fill="none" xmlns="http://www.w3.org/2000/svg">
<path d="M36 21.64C35.4696 21.64 34.9609 21.8507 34.5858 22.2258C34.2107 22.6009 34 23.1096 34 23.64V38C34 38.5304 33.7893 39.0391 33.4142 39.4142C33.0391 39.7893 32.5304 40 32 40H10C9.46957 40 8.96086 39.7893 8.58579 39.4142C8.21071 39.0391 8 38.5304 8 38V16C8 15.4696 8.21071 14.9609 8.58579 14.5858C8.96086 14.2107 9.46957 14 10 14H24.36C24.8904 14 25.3991 13.7893 25.7742 13.4142C26.1493 13.0391 26.36 12.5304 26.36 12C26.36 11.4696 26.1493 10.9609 25.7742 10.5858C25.3991 10.2107 24.8904 10 24.36 10H10C8.4087 10 6.88258 10.6321 5.75736 11.7574C4.63214 12.8826 4 14.4087 4 16V38C4 39.5913 4.63214 41.1174 5.75736 42.2426C6.88258 43.3679 8.4087 44 10 44H32C33.5913 44 35.1174 43.3679 36.2426 42.2426C37.3679 41.1174 38 39.5913 38 38V23.64C38 23.1096 37.7893 22.6009 37.4142 22.2258C37.0391 21.8507 36.5304 21.64 36 21.64ZM43.84 5.24C43.6371 4.7513 43.2487 4.36295 42.76 4.16C42.5196 4.05752 42.2614 4.00316 42 4H30C29.4696 4 28.9609 4.21071 28.5858 4.58579C28.2107 4.96086 28 5.46957 28 6C28 6.53043 28.2107 7.03914 28.5858 7.41421C28.9609 7.78929 29.4696 8 30 8H37.18L16.58 28.58C16.3925 28.7659 16.2438 28.9871 16.1422 29.2308C16.0407 29.4746 15.9884 29.736 15.9884 30C15.9884 30.264 16.0407 30.5254 16.1422 30.7692C16.2438 31.0129 16.3925 31.2341 16.58 31.42C16.7659 31.6075 16.9871 31.7562 17.2308 31.8578C17.4746 31.9593 17.736 32.0116 18 32.0116C18.264 32.0116 18.5254 31.9593 18.7692 31.8578C19.0129 31.7562 19.2341 31.6075 19.42 31.42L40 10.82V18C40 18.5304 40.2107 19.0391 40.5858 19.4142C40.9609 19.7893 41.4696 20 42 20C42.5304 20 43.0391 19.7893 43.4142 19.4142C43.7893 19.0391 44 18.5304 44 18V6C43.9968 5.73865 43.9425 5.48044 43.84 5.24Z" fill="#fff"/>
</svg>
