<svg width="64" height="64" viewBox="0 0 64 64" fill="none" xmlns="http://www.w3.org/2000/svg">
<path d="M22.56 33.8933L37.6533 48.96C37.9012 49.2099 38.1962 49.4083 38.5211 49.5437C38.8461 49.6791 39.1946 49.7488 39.5467 49.7488C39.8987 49.7488 40.2473 49.6791 40.5722 49.5437C40.8972 49.4083 41.1921 49.2099 41.44 48.96C41.9367 48.4604 42.2155 47.7845 42.2155 47.08C42.2155 46.3755 41.9367 45.6996 41.44 45.2L28.24 31.8666L41.44 18.6667C41.9367 18.167 42.2155 17.4911 42.2155 16.7867C42.2155 16.0822 41.9367 15.4063 41.44 14.9067C41.193 14.6547 40.8985 14.4542 40.5735 14.3169C40.2485 14.1796 39.8995 14.1081 39.5467 14.1067C39.1939 14.1081 38.8448 14.1796 38.5198 14.3169C38.1948 14.4542 37.9003 14.6547 37.6533 14.9067L22.56 29.9733C22.2893 30.223 22.0733 30.5261 21.9256 30.8634C21.7778 31.2008 21.7015 31.565 21.7015 31.9333C21.7015 32.3016 21.7778 32.6659 21.9256 33.0032C22.0733 33.3405 22.2893 33.6436 22.56 33.8933Z" fill="#141414"/>
</svg>
