<svg width="64" height="64" viewBox="0 0 64 64" fill="none" xmlns="http://www.w3.org/2000/svg">
<path d="M41.4401 30.1067L26.3468 15.04C26.0989 14.7901 25.8039 14.5917 25.479 14.4563C25.154 14.3209 24.8055 14.2512 24.4534 14.2512C24.1014 14.2512 23.7529 14.3209 23.4279 14.4563C23.103 14.5917 22.808 14.7901 22.5601 15.04C22.0634 15.5396 21.7847 16.2155 21.7847 16.92C21.7847 17.6245 22.0634 18.3004 22.5601 18.8L35.7601 32.1334L22.5601 45.3333C22.0634 45.833 21.7847 46.5089 21.7847 47.2133C21.7847 47.9178 22.0634 48.5937 22.5601 49.0933C22.8071 49.3453 23.1016 49.5458 23.4266 49.6831C23.7516 49.8204 24.1006 49.8919 24.4534 49.8933C24.8063 49.8919 25.1553 49.8204 25.4803 49.6831C25.8053 49.5458 26.0998 49.3453 26.3468 49.0933L41.4401 34.0267C41.7108 33.777 41.9268 33.4739 42.0746 33.1366C42.2223 32.7992 42.2986 32.435 42.2986 32.0667C42.2986 31.6984 42.2223 31.3341 42.0746 30.9968C41.9268 30.6595 41.7108 30.3564 41.4401 30.1067Z" fill="#fff"/>
</svg>
