<svg width="50" height="50" viewBox="0 0 50 50" fill="none" xmlns="http://www.w3.org/2000/svg">
<path d="M43.4792 35.9375L37.8333 26.1875C38.9886 24.0656 39.5905 21.6868 39.5833 19.2708C39.5833 15.4031 38.0469 11.6938 35.312 8.95886C32.5771 6.22395 28.8677 4.6875 25 4.6875C21.1323 4.6875 17.4229 6.22395 14.688 8.95886C11.9531 11.6938 10.4167 15.4031 10.4167 19.2708C10.4095 21.6868 11.0114 24.0656 12.1667 26.1875L6.52082 35.9375C6.33762 36.2548 6.24134 36.6148 6.2417 36.9812C6.24206 37.3476 6.33905 37.7075 6.52288 38.0244C6.70672 38.3414 6.97089 38.6042 7.28875 38.7865C7.60661 38.9688 7.96692 39.064 8.33332 39.0625H14.3125L17.3542 44.1875C17.4567 44.3574 17.583 44.5117 17.7292 44.6458C18.1154 45.0181 18.6303 45.227 19.1667 45.2292H19.4583C19.7728 45.1861 20.0734 45.0718 20.3369 44.8949C20.6005 44.7179 20.8202 44.4831 20.9792 44.2083L25 37.2917L29.0208 44.2708C29.1821 44.5417 29.4028 44.7725 29.6663 44.9457C29.9297 45.1189 30.229 45.2301 30.5417 45.2708H30.8333C31.3769 45.2741 31.9003 45.0648 32.2917 44.6875C32.4318 44.561 32.5513 44.4134 32.6458 44.25L35.6875 39.125H41.6667C42.0338 39.1265 42.3947 39.0309 42.713 38.848C43.0313 38.665 43.2956 38.4013 43.4792 38.0833C43.6738 37.7593 43.7767 37.3884 43.7767 37.0104C43.7767 36.6324 43.6738 36.2615 43.4792 35.9375ZM19.1458 39.125L17.2917 36.0208C17.1091 35.7129 16.8502 35.4571 16.54 35.2783C16.2299 35.0995 15.8788 35.0037 15.5208 35H11.9167L14.8958 29.8333C16.9473 31.8102 19.5329 33.1428 22.3333 33.6667L19.1458 39.125ZM25 29.6875C22.9398 29.6875 20.9258 29.0766 19.2128 27.932C17.4998 26.7874 16.1647 25.1605 15.3762 23.2571C14.5878 21.3537 14.3815 19.2593 14.7835 17.2386C15.1854 15.218 16.1775 13.3619 17.6343 11.9051C19.0911 10.4483 20.9472 9.45625 22.9678 9.05432C24.9884 8.65239 27.0829 8.85868 28.9863 9.64709C30.8897 10.4355 32.5165 11.7706 33.6611 13.4836C34.8057 15.1967 35.4167 17.2106 35.4167 19.2708C35.4167 22.0335 34.3192 24.683 32.3657 26.6365C30.4122 28.59 27.7627 29.6875 25 29.6875ZM34.4792 35C34.1211 35.0037 33.7701 35.0995 33.4599 35.2783C33.1498 35.4571 32.8909 35.7129 32.7083 36.0208L30.8542 39.125L27.6875 33.6042C30.4781 33.0696 33.0541 31.7382 35.1042 29.7708L38.0833 34.9375L34.4792 35Z" fill="#141414"/>
</svg>
