<svg width="36" height="36" viewBox="0 0 36 36" fill="none" xmlns="http://www.w3.org/2000/svg">
<g clip-path="url(#clip0_52_88)">
<path d="M21.2909 18.4508C20.6345 18.2348 19.6895 18.2812 18.4559 18.2812H13.5V24.75H18.7999C19.6279 24.75 20.2095 24.6614 20.5445 24.5995C21.1348 24.4938 21.6284 24.289 22.025 24.0421C22.4212 23.7957 22.7472 23.4219 23.0032 22.9506C23.2585 22.4792 23.3865 21.9277 23.3865 21.3109C23.3865 20.5886 23.2014 20.034 22.831 19.5007C22.4609 18.9675 21.9476 18.6668 21.2909 18.4508ZM20.6106 15.4932C21.2622 15.2997 21.7536 14.9617 22.084 14.5125C22.4148 14.0631 22.5799 13.4913 22.5799 12.8126C22.5799 12.1697 22.4255 11.5993 22.1169 11.1099C21.8084 10.6206 21.3683 10.4313 20.7953 10.2504C20.2224 10.0702 19.24 10.125 17.8478 10.125H13.5V15.75H18.1651C19.3019 15.75 20.1167 15.6431 20.6106 15.4932ZM35.4375 5.23828C35.4375 2.65584 33.3442 0.5625 30.7617 0.5625H4.95703C2.37459 0.5625 0.28125 2.65584 0.28125 5.23828V31.043C0.28125 33.6254 2.37459 35.7188 4.95703 35.7188H30.7617C33.3442 35.7188 35.4375 33.6254 35.4375 31.043V5.23828ZM25.468 23.8345C25.085 24.6144 24.6111 25.2158 24.0472 25.6388C23.483 26.0618 22.7756 26.4206 21.9254 26.6366C21.0755 26.8529 20.0332 27 18.7999 27H10.9688V7.59375H18.6806C20.1611 7.59375 21.3483 7.76503 22.2427 8.15681C23.1373 8.54916 23.8376 9.14034 24.3447 9.95541C24.8512 10.7705 25.1047 11.6167 25.1047 12.5066C25.1047 13.3349 24.8797 14.112 24.4305 14.8433C23.9811 15.5751 23.3024 16.1634 22.3951 16.6129C23.5668 16.9566 24.4679 17.5421 25.0979 18.3701C25.7279 19.1984 26.0429 20.1763 26.0429 21.3041C26.0429 22.2117 25.8514 23.0549 25.468 23.8345Z" fill="#5B4282"/>
</g>
<defs>
<clipPath id="clip0_52_88">
<rect width="36" height="36" fill="white"/>
</clipPath>
</defs>
</svg>
