<svg width="32" height="32" viewBox="0 0 32 32" fill="none" xmlns="http://www.w3.org/2000/svg">
<path d="M25.3332 5.33325H6.6665C5.60564 5.33325 4.58822 5.75468 3.83808 6.50482C3.08793 7.25497 2.6665 8.27239 2.6665 9.33325V22.6666C2.6665 23.7275 3.08793 24.7449 3.83808 25.495C4.58822 26.2452 5.60564 26.6666 6.6665 26.6666H25.3332C26.394 26.6666 27.4115 26.2452 28.1616 25.495C28.9117 24.7449 29.3332 23.7275 29.3332 22.6666V9.33325C29.3332 8.27239 28.9117 7.25497 28.1616 6.50482C27.4115 5.75468 26.394 5.33325 25.3332 5.33325ZM24.7865 7.99992L16.9465 15.8399C16.8226 15.9649 16.6751 16.0641 16.5126 16.1318C16.3501 16.1995 16.1759 16.2343 15.9998 16.2343C15.8238 16.2343 15.6495 16.1995 15.4871 16.1318C15.3246 16.0641 15.1771 15.9649 15.0532 15.8399L7.21317 7.99992H24.7865ZM26.6665 22.6666C26.6665 23.0202 26.526 23.3593 26.276 23.6094C26.0259 23.8594 25.6868 23.9999 25.3332 23.9999H6.6665C6.31288 23.9999 5.97374 23.8594 5.72369 23.6094C5.47365 23.3593 5.33317 23.0202 5.33317 22.6666V9.87992L13.1732 17.7199C13.9232 18.469 14.9398 18.8897 15.9998 18.8897C17.0598 18.8897 18.0765 18.469 18.8265 17.7199L26.6665 9.87992V22.6666Z" fill="#141414"/>
</svg>
