<svg width="36" height="36" viewBox="0 0 36 36" fill="none" xmlns="http://www.w3.org/2000/svg">
<path d="M12.0049 36C13.5962 36 15.1223 35.3679 16.2475 34.2426C17.3727 33.1174 18.0049 31.5913 18.0049 30V24H12.0049C10.4136 24 8.88746 24.6321 7.76224 25.7574C6.63702 26.8826 6.00488 28.4087 6.00488 30C6.00488 31.5913 6.63702 33.1174 7.76224 34.2426C8.88746 35.3679 10.4136 36 12.0049 36Z" fill="#0ACF83"/>
<path d="M6.00488 18C6.00488 16.4087 6.63702 14.8826 7.76224 13.7574C8.88746 12.6321 10.4136 12 12.0049 12H18.0049V24H12.0049C10.4136 24 8.88746 23.3679 7.76224 22.2426C6.63702 21.1174 6.00488 19.5913 6.00488 18Z" fill="#A259FF"/>
<path d="M6.00488 6C6.00488 4.40951 6.63638 2.8841 7.76058 1.75902C8.88479 0.633932 10.4097 0.00124257 12.0002 0L18.0002 0V12H12.0049C10.4136 12 8.88746 11.3679 7.76224 10.2426C6.63702 9.11742 6.00488 7.5913 6.00488 6Z" fill="#F24E1E"/>
<path d="M18.0049 0H24.0049C25.5962 0 27.1223 0.632141 28.2475 1.75736C29.3727 2.88258 30.0049 4.4087 30.0049 6C30.0049 7.5913 29.3727 9.11742 28.2475 10.2426C27.1223 11.3679 25.5962 12 24.0049 12H18.0049V0Z" fill="#FF7262"/>
<path d="M30.0049 18C30.0049 19.5913 29.3727 21.1174 28.2475 22.2426C27.1223 23.3679 25.5962 24 24.0049 24C22.4136 24 20.8875 23.3679 19.7622 22.2426C18.637 21.1174 18.0049 19.5913 18.0049 18C18.0049 16.4087 18.637 14.8826 19.7622 13.7574C20.8875 12.6321 22.4136 12 24.0049 12C25.5962 12 27.1223 12.6321 28.2475 13.7574C29.3727 14.8826 30.0049 16.4087 30.0049 18Z" fill="#1ABCFE"/>
</svg>
