<svg width="36" height="36" viewBox="0 0 36 36" fill="none" xmlns="http://www.w3.org/2000/svg">
<path d="M33.1562 16.5971L19.4031 2.84401C19.215 2.65523 18.9914 2.50544 18.7453 2.40323C18.4991 2.30102 18.2352 2.24841 17.9687 2.24841C17.7022 2.24841 17.4383 2.30102 17.1921 2.40323C16.946 2.50544 16.7225 2.65523 16.5343 2.84401L13.678 5.70038L17.3005 9.32288C17.7276 9.17751 18.187 9.15506 18.6264 9.25808C19.0657 9.3611 19.4672 9.58546 19.7852 9.90558C20.1032 10.2257 20.3249 10.6287 20.425 11.0687C20.5251 11.5087 20.4996 11.9679 20.3515 12.3941L23.839 15.8816C24.3603 15.7025 24.9272 15.7075 25.4453 15.8957C25.9634 16.0838 26.4013 16.4439 26.6862 16.9157C26.9711 17.3876 27.0856 17.9429 27.0108 18.489C26.936 19.0351 26.6763 19.539 26.275 19.9169C25.8737 20.2948 25.355 20.5237 24.8054 20.5656C24.2558 20.6075 23.7085 20.4598 23.2545 20.1471C22.8006 19.8344 22.4676 19.3756 22.3109 18.8471C22.1541 18.3187 22.1833 17.7525 22.3933 17.2429L19.1365 13.986V22.5551C19.6298 22.7996 20.0245 23.2057 20.2549 23.7058C20.4852 24.2059 20.5372 24.7698 20.4023 25.3036C20.2674 25.8374 19.9536 26.3089 19.5133 26.6395C19.0731 26.9701 18.5328 27.1399 17.9825 27.1205C17.4323 27.1012 16.9052 26.8939 16.4892 26.5332C16.0732 26.1725 15.7934 25.6802 15.6963 25.1382C15.5991 24.5962 15.6906 24.0374 15.9555 23.5547C16.2204 23.072 16.6427 22.6946 17.152 22.4854V13.8375C16.8573 13.7166 16.5895 13.5386 16.3639 13.3138C16.1384 13.0889 15.9595 12.8217 15.8377 12.5274C15.7159 12.2332 15.6535 11.9177 15.6541 11.5992C15.6547 11.2808 15.7184 10.9655 15.8413 10.6718L12.2751 7.10326L2.84421 16.5375C2.65526 16.7257 2.50532 16.9493 2.40302 17.1955C2.30071 17.4418 2.24805 17.7058 2.24805 17.9724C2.24805 18.2391 2.30071 18.5031 2.40302 18.7494C2.50532 18.9956 2.65526 19.2192 2.84421 19.4074L16.5973 33.156C16.7855 33.3448 17.009 33.4946 17.2551 33.5968C17.5013 33.699 17.7652 33.7516 18.0317 33.7516C18.2982 33.7516 18.5621 33.699 18.8083 33.5968C19.0544 33.4946 19.278 33.3448 19.4661 33.156L33.1562 19.4625C33.3452 19.2744 33.4951 19.0507 33.5974 18.8045C33.6997 18.5583 33.7524 18.2942 33.7524 18.0276C33.7524 17.7609 33.6997 17.4969 33.5974 17.2506C33.4951 17.0044 33.3452 16.7808 33.1562 16.5926" fill="#DD4C35"/>
<path d="M13.6778 5.70032L17.3003 9.32282C17.7274 9.17745 18.1869 9.15499 18.6262 9.25801C19.0655 9.36103 19.467 9.58539 19.785 9.90551C20.103 10.2256 20.3247 10.6286 20.4249 11.0686C20.525 11.5086 20.4995 11.9679 20.3513 12.3941L23.8388 15.8816C24.3601 15.7025 24.927 15.7074 25.4451 15.8956C25.9632 16.0838 26.4011 16.4438 26.686 16.9157C26.9709 17.3876 27.0854 17.9428 27.0106 18.4889C26.9358 19.035 26.6761 19.539 26.2748 19.9168C25.8735 20.2947 25.3549 20.5237 24.8053 20.5656C24.2557 20.6074 23.7083 20.4597 23.2544 20.147C22.8004 19.8343 22.4674 19.3755 22.3107 18.8471C22.154 18.3186 22.1831 17.7524 22.3932 17.2428L19.1363 13.9859V22.5551C19.6296 22.7995 20.0244 23.2056 20.2547 23.7057C20.485 24.2058 20.5371 24.7697 20.4021 25.3035C20.2672 25.8374 19.9535 26.3088 19.5132 26.6394C19.0729 26.97 18.5326 27.1398 17.9823 27.1204C17.4321 27.1011 16.9051 26.8938 16.4891 26.5331C16.0731 26.1724 15.7932 25.6801 15.6961 25.1381C15.599 24.5962 15.6905 24.0373 15.9553 23.5546C16.2202 23.0719 16.6425 22.6945 17.1518 22.4853V13.8374C16.8571 13.7166 16.5893 13.5386 16.3638 13.3137C16.1382 13.0889 15.9594 12.8216 15.8375 12.5274C15.7157 12.2331 15.6533 11.9176 15.6539 11.5992C15.6546 11.2807 15.7182 10.9655 15.8412 10.6717L12.2749 7.10319" fill="white"/>
</svg>
