<svg width="32" height="32" viewBox="0 0 32 32" fill="none" xmlns="http://www.w3.org/2000/svg">
<path d="M13.4269 27.3372C13.4269 27.1416 13.3839 26.9485 13.3009 26.7714C13.2179 26.5944 13.097 26.4377 12.9467 26.3126C12.7964 26.1875 12.6205 26.097 12.4313 26.0474C12.2421 25.9979 12.0444 25.9906 11.8521 26.026C10.1066 26.3463 7.90285 26.3945 7.31691 24.7486C6.80598 23.474 5.95967 22.3613 4.86769 21.5286C4.78978 21.4863 4.71553 21.4375 4.64569 21.3828C4.55012 21.1307 4.38038 20.9135 4.15884 20.7598C3.93731 20.6062 3.6744 20.5233 3.4048 20.5221H3.39829C3.04576 20.522 2.70753 20.6615 2.45764 20.9102C2.20775 21.1589 2.06656 21.4964 2.06496 21.8489C2.05975 22.9362 3.14629 23.6328 3.58709 23.8685C4.10688 24.3907 4.52463 25.0054 4.81887 25.681C5.30455 27.0456 6.716 29.1159 10.7733 28.849C10.7746 28.8959 10.7759 28.9401 10.7765 28.9805L10.7824 29.3372C10.7824 29.6909 10.9229 30.03 11.1729 30.2801C11.423 30.5301 11.7621 30.6706 12.1157 30.6706C12.4694 30.6706 12.8085 30.5301 13.0585 30.2801C13.3086 30.03 13.4491 29.6909 13.4491 29.3372L13.4426 28.9128C13.4361 28.6601 13.4269 28.2942 13.4269 27.3372ZM27.6496 7.16917C27.6919 7.0025 27.7336 6.81761 27.7701 6.60928C27.9857 5.12339 27.7977 3.60686 27.2258 2.21861C27.1536 2.03763 27.0427 1.87462 26.9009 1.74101C26.7591 1.60741 26.5898 1.50644 26.4048 1.44518C25.9301 1.28502 24.1776 0.969916 20.826 3.11185C18.0401 2.45624 15.14 2.45624 12.354 3.11185C9.01613 1.00129 7.27264 1.28769 6.80259 1.43873C6.61307 1.4975 6.43911 1.59794 6.29345 1.73267C6.14779 1.86741 6.03413 2.03303 5.96079 2.2174C5.37719 3.6323 5.19124 5.17976 5.42303 6.69265C5.45559 6.86322 5.49073 7.02078 5.5272 7.1653C4.42263 8.63656 3.83428 10.4311 3.85337 12.2708C3.84977 12.6812 3.86868 13.0916 3.91001 13.4999C4.35535 19.6367 8.35535 21.4791 11.1424 22.1119C11.0845 22.2786 11.0318 22.457 10.9849 22.6458C10.9013 22.9888 10.9572 23.351 11.1403 23.6529C11.3234 23.9548 11.6188 24.1718 11.9616 24.2563C12.3045 24.3407 12.6668 24.2858 12.9692 24.1035C13.2716 23.9212 13.4894 23.6264 13.5747 23.2838C13.6596 22.8395 13.877 22.4314 14.1984 22.1132C14.3928 21.9431 14.5335 21.7201 14.6034 21.4715C14.6734 21.2228 14.6696 20.9592 14.5925 20.7127C14.5153 20.4662 14.3683 20.2474 14.1691 20.0829C13.9699 19.9185 13.7272 19.8155 13.4706 19.7864C8.86509 19.2604 6.86573 17.3841 6.56496 13.2552C6.53164 12.9281 6.51665 12.5995 6.52004 12.2708C6.49865 10.9597 6.93181 9.68155 7.74595 8.6536C7.82775 8.54643 7.91488 8.44343 8.00701 8.345C8.17026 8.16233 8.28001 7.93822 8.32423 7.69727C8.36845 7.45632 8.34542 7.20784 8.25768 6.97912C8.16773 6.73849 8.09847 6.49063 8.05065 6.23822C7.94203 5.52051 7.97766 4.78834 8.15545 4.08457C9.3143 4.41187 10.4049 4.94463 11.3755 5.65748C11.5359 5.76438 11.7175 5.83551 11.9079 5.86607C12.0983 5.89662 12.2931 5.88588 12.479 5.83457C15.1738 5.10324 18.0149 5.1037 20.7094 5.8359C20.8963 5.88716 21.0921 5.89729 21.2833 5.86559C21.4745 5.8339 21.6565 5.76114 21.8169 5.65232C22.7828 4.9365 23.8689 4.39898 25.0239 4.06508C25.2009 4.75195 25.2405 5.46702 25.1404 6.16924C25.0921 6.44595 25.0167 6.71723 24.9152 6.97914C24.8274 7.20787 24.8044 7.45634 24.8486 7.6973C24.8928 7.93825 25.0026 8.16236 25.1658 8.34502C25.2687 8.4609 25.3716 8.5859 25.464 8.70309C26.2724 9.71365 26.6982 10.9771 26.6665 12.2708C26.6689 12.6169 26.6522 12.9629 26.6164 13.3072C26.3228 17.3814 24.3156 19.2591 19.6887 19.7864C19.4319 19.8156 19.1892 19.9188 18.9901 20.0834C18.7909 20.2481 18.6439 20.467 18.5668 20.7136C18.4898 20.9602 18.4861 21.224 18.5561 21.4727C18.6262 21.7214 18.767 21.9444 18.9614 22.1145C19.293 22.4412 19.5109 22.8657 19.5832 23.3255C19.6733 23.6824 19.7147 24.0499 19.7062 24.4179V27.5299C19.6932 28.3932 19.6932 29.0403 19.6932 29.3372C19.6932 29.6908 19.8337 30.0299 20.0837 30.28C20.3338 30.53 20.6729 30.6705 21.0265 30.6705C21.3801 30.6705 21.7193 30.53 21.9693 30.28C22.2194 30.0299 22.3599 29.6908 22.3599 29.3372C22.3599 29.0481 22.3599 28.414 22.3729 27.5507V24.4179C22.3836 23.8283 22.3142 23.2401 22.1665 22.6692C22.1243 22.4818 22.0725 22.2967 22.0115 22.1145C24.0399 21.7776 25.8828 20.7318 27.2124 19.1633C28.5419 17.5949 29.2717 15.6056 29.272 13.5494C29.3159 13.1247 29.3363 12.6978 29.3332 12.2708C29.3628 10.4291 28.7695 8.63145 27.6496 7.16917Z" fill="#FAFAFA"/>
</svg>
