<svg width="32" height="32" viewBox="0 0 32 32" fill="none" xmlns="http://www.w3.org/2000/svg">
<path d="M13.4272 27.3372C13.4271 27.1417 13.3841 26.9485 13.3011 26.7715C13.2181 26.5944 13.0972 26.4378 12.9469 26.3126C12.7967 26.1875 12.6207 26.097 12.4315 26.0475C12.2424 25.9979 12.0446 25.9906 11.8523 26.026C10.1069 26.3463 7.9031 26.3945 7.31715 24.7487C6.80623 23.474 5.95991 22.3614 4.86794 21.5287C4.79003 21.4863 4.71577 21.4375 4.64594 21.3828C4.55037 21.1307 4.38062 20.9135 4.15909 20.7599C3.93755 20.6062 3.67465 20.5233 3.40504 20.5221H3.39854C3.046 20.522 2.70778 20.6616 2.45789 20.9102C2.208 21.1589 2.0668 21.4964 2.0652 21.849C2.05999 22.9362 3.14654 23.6328 3.58734 23.8685C4.10713 24.3908 4.52487 25.0055 4.81911 25.681C5.30479 27.0456 6.71624 29.1159 10.7735 28.849C10.7749 28.8959 10.7761 28.9401 10.7768 28.9805L10.7826 29.3373C10.7826 29.6909 10.9231 30.03 11.1732 30.2801C11.4232 30.5301 11.7624 30.6706 12.116 30.6706C12.4696 30.6706 12.8087 30.5301 13.0588 30.2801C13.3088 30.03 13.4493 29.6909 13.4493 29.3373L13.4428 28.9128C13.4363 28.6601 13.4272 28.2942 13.4272 27.3372ZM27.6498 7.1692C27.6922 7.00253 27.7338 6.81764 27.7703 6.60931C27.9859 5.12342 27.7979 3.60689 27.226 2.21864C27.1539 2.03766 27.043 1.87465 26.9012 1.74104C26.7593 1.60744 26.59 1.50647 26.4051 1.44521C25.9304 1.28505 24.1778 0.969947 20.8263 3.11188C18.0403 2.45627 15.1402 2.45627 12.3543 3.11188C9.01638 1.00132 7.27288 1.28772 6.80283 1.43876C6.61332 1.49753 6.43936 1.59797 6.2937 1.7327C6.14804 1.86744 6.03437 2.03306 5.96103 2.21743C5.37743 3.63233 5.19149 5.17979 5.42327 6.69268C5.45583 6.86325 5.49098 7.02081 5.52744 7.16533C4.42287 8.63659 3.83452 10.4312 3.85362 12.2708C3.85002 12.6812 3.86893 13.0916 3.91026 13.5C4.35559 19.6367 8.35559 21.4791 11.1427 22.112C11.0847 22.2786 11.032 22.457 10.9851 22.6458C10.9016 22.9889 10.9575 23.3511 11.1406 23.653C11.3237 23.9549 11.619 24.1718 11.9619 24.2563C12.3047 24.3408 12.6671 24.2858 12.9695 24.1035C13.2718 23.9212 13.4896 23.6264 13.575 23.2838C13.6598 22.8396 13.8773 22.4315 14.1987 22.1133C14.393 21.9431 14.5337 21.7202 14.6037 21.4715C14.6736 21.2229 14.6698 20.9593 14.5927 20.7127C14.5156 20.4662 14.3685 20.2474 14.1693 20.083C13.9701 19.9185 13.7275 19.8155 13.4708 19.7864C8.86534 19.2604 6.86598 17.3841 6.5652 13.2552C6.53189 12.9282 6.51689 12.5995 6.52028 12.2708C6.49889 10.9597 6.93206 9.68158 7.74619 8.65363C7.828 8.54646 7.91513 8.44346 8.00726 8.34503C8.1705 8.16236 8.28026 7.93825 8.32448 7.6973C8.36869 7.45635 8.34567 7.20787 8.25792 6.97915C8.16797 6.73852 8.09871 6.49066 8.0509 6.23825C7.94227 5.52054 7.9779 4.78837 8.1557 4.0846C9.31454 4.4119 10.4052 4.94466 11.3757 5.65751C11.5362 5.76441 11.7178 5.83554 11.9082 5.8661C12.0986 5.89665 12.2933 5.88591 12.4792 5.8346C15.174 5.10327 18.0151 5.10373 20.7097 5.83593C20.8966 5.88719 21.0924 5.89732 21.2835 5.86562C21.4747 5.83393 21.6567 5.76117 21.8171 5.65235C22.7831 4.93653 23.8691 4.39901 25.0241 4.06511C25.2011 4.75198 25.2408 5.46705 25.1407 6.16927C25.0924 6.44598 25.0169 6.71726 24.9154 6.97917C24.8277 7.2079 24.8046 7.45638 24.8489 7.69733C24.8931 7.93828 25.0028 8.16239 25.1661 8.34505C25.2689 8.46093 25.3718 8.58593 25.4642 8.70312C26.2726 9.71368 26.6985 10.9771 26.6668 12.2708C26.6692 12.6169 26.6524 12.963 26.6166 13.3073C26.323 17.3815 24.3159 19.2591 19.6889 19.7864C19.4322 19.8157 19.1895 19.9189 18.9903 20.0835C18.7912 20.2481 18.6441 20.467 18.5671 20.7136C18.49 20.9603 18.4863 21.224 18.5564 21.4727C18.6264 21.7214 18.7672 21.9444 18.9617 22.1145C19.2932 22.4412 19.5111 22.8657 19.5834 23.3255C19.6735 23.6824 19.7149 24.0499 19.7065 24.4179V27.5299C19.6934 28.3932 19.6934 29.0403 19.6934 29.3372C19.6934 29.6908 19.8339 30.03 20.084 30.28C20.334 30.5301 20.6731 30.6705 21.0268 30.6705C21.3804 30.6705 21.7195 30.5301 21.9696 30.28C22.2196 30.03 22.3601 29.6908 22.3601 29.3372C22.3601 29.0481 22.3601 28.414 22.3731 27.5507V24.4179C22.3839 23.8284 22.3144 23.2401 22.1667 22.6692C22.1245 22.4818 22.0728 22.2967 22.0118 22.1146C24.0401 21.7776 25.8831 20.7318 27.2126 19.1634C28.5421 17.5949 29.272 15.6056 29.2722 13.5495C29.3161 13.1247 29.3366 12.6978 29.3334 12.2708C29.363 10.4292 28.7698 8.63148 27.6498 7.1692Z" fill="#fff"/>
</svg>
