<svg width="60" height="60" viewBox="0 0 60 60" fill="none" xmlns="http://www.w3.org/2000/svg">
<path d="M51.1749 5.00011H8.8249C8.34885 4.99349 7.87615 5.08072 7.43382 5.25681C6.99148 5.43291 6.58816 5.69441 6.2469 6.02639C5.90563 6.35836 5.63311 6.75432 5.44488 7.19163C5.25666 7.62894 5.15642 8.09905 5.1499 8.57511V51.4251C5.15642 51.9012 5.25666 52.3713 5.44488 52.8086C5.63311 53.2459 5.90563 53.6418 6.2469 53.9738C6.58816 54.3058 6.99148 54.5673 7.43382 54.7434C7.87615 54.9195 8.34885 55.0067 8.8249 55.0001H51.1749C51.651 55.0067 52.1237 54.9195 52.566 54.7434C53.0083 54.5673 53.4116 54.3058 53.7529 53.9738C54.0942 53.6418 54.3667 53.2459 54.5549 52.8086C54.7431 52.3713 54.8434 51.9012 54.8499 51.4251V8.57511C54.8434 8.09905 54.7431 7.62894 54.5549 7.19163C54.3667 6.75432 54.0942 6.35836 53.7529 6.02639C53.4116 5.69441 53.0083 5.43291 52.566 5.25681C52.1237 5.08072 51.651 4.99349 51.1749 5.00011ZM20.2249 46.8501H12.7249V24.3501H20.2249V46.8501ZM16.4749 21.2001C15.4406 21.2001 14.4486 20.7892 13.7172 20.0578C12.9858 19.3264 12.5749 18.3344 12.5749 17.3001C12.5749 16.2658 12.9858 15.2738 13.7172 14.5424C14.4486 13.811 15.4406 13.4001 16.4749 13.4001C17.0241 13.3378 17.5803 13.3922 18.1071 13.5598C18.6338 13.7274 19.1193 14.0043 19.5315 14.3725C19.9438 14.7407 20.2737 15.1918 20.4996 15.6963C20.7254 16.2008 20.8422 16.7473 20.8422 17.3001C20.8422 17.8529 20.7254 18.3994 20.4996 18.9039C20.2737 19.4084 19.9438 19.8595 19.5315 20.2277C19.1193 20.5959 18.6338 20.8728 18.1071 21.0404C17.5803 21.208 17.0241 21.2624 16.4749 21.2001ZM47.2749 46.8501H39.7749V34.7751C39.7749 31.7501 38.6999 29.7751 35.9749 29.7751C35.1316 29.7813 34.3104 30.0458 33.622 30.533C32.9336 31.0203 32.4111 31.7068 32.1249 32.5001C31.9293 33.0877 31.8445 33.7065 31.8749 34.3251V46.8251H24.3749C24.3749 46.8251 24.3749 26.3751 24.3749 24.3251H31.8749V27.5001C32.5562 26.3179 33.5472 25.3439 34.741 24.6831C35.9348 24.0223 37.2863 23.6997 38.6499 23.7501C43.6499 23.7501 47.2749 26.9751 47.2749 33.9001V46.8501Z" fill="#000000"/>
</svg>
