<svg width="114" height="26" viewBox="0 0 114 26" fill="none" xmlns="http://www.w3.org/2000/svg">
<path d="M1.66523 25.8675C1.19555 25.8675 0.80059 25.7019 0.480354 25.3707C0.160118 25.0395 0 24.631 0 24.1452V1.72229C0 1.21444 0.160118 0.805944 0.480354 0.496815C0.80059 0.165605 1.19555 0 1.66523 0H8.06995C9.67113 0 11.0908 0.364331 12.3291 1.09299C13.5673 1.82166 14.528 2.83737 15.2112 4.14013C15.9157 5.42081 16.268 6.90021 16.268 8.57834C16.268 10.1902 15.9157 11.6255 15.2112 12.8841C14.528 14.1427 13.5673 15.1253 12.3291 15.8318C11.0908 16.5384 9.67113 16.8917 8.06995 16.8917H3.33045V24.1452C3.33045 24.631 3.17034 25.0395 2.8501 25.3707C2.55121 25.7019 2.15626 25.8675 1.66523 25.8675ZM3.33045 13.7121H8.06995C9.052 13.7121 9.91664 13.4913 10.6639 13.0497C11.4111 12.6081 11.9982 12.0008 12.4252 11.228C12.8521 10.4552 13.0656 9.57197 13.0656 8.57834C13.0656 7.51847 12.8521 6.59108 12.4252 5.79618C11.9982 4.97919 11.4111 4.33885 10.6639 3.87516C9.91664 3.41146 9.052 3.17962 8.06995 3.17962H3.33045V13.7121Z" fill="#FAFAFA"/>
<path d="M27.2366 26C25.4646 26 23.8848 25.6136 22.4971 24.8408C21.1307 24.0459 20.0526 22.9639 19.2627 21.5949C18.4941 20.2038 18.1098 18.614 18.1098 16.8255C18.1098 15.0149 18.4728 13.4251 19.1986 12.0561C19.9459 10.665 20.9706 9.58301 22.2729 8.81019C23.5752 8.01529 25.0696 7.61783 26.7562 7.61783C28.4214 7.61783 29.8518 8.00425 31.0474 8.77707C32.2429 9.52781 33.1503 10.5766 33.7694 11.9236C34.4099 13.2484 34.7301 14.783 34.7301 16.5274C34.7301 16.9469 34.5913 17.3002 34.3138 17.5873C34.0362 17.8522 33.684 17.9847 33.257 17.9847H20.3515V15.335H33.1609L31.848 16.2624C31.8266 15.1584 31.6131 14.1758 31.2075 13.3146C30.8019 12.4314 30.2254 11.7359 29.4782 11.228C28.731 10.7202 27.8237 10.4662 26.7562 10.4662C25.5393 10.4662 24.4932 10.7422 23.6179 11.2943C22.7639 11.8463 22.1128 12.6081 21.6645 13.5796C21.2161 14.5291 20.992 15.611 20.992 16.8255C20.992 18.0399 21.2588 19.1219 21.7926 20.0713C22.3263 21.0208 23.0628 21.7715 24.0022 22.3236C24.9415 22.8756 26.0197 23.1516 27.2366 23.1516C27.8984 23.1516 28.5709 23.0301 29.2541 22.7873C29.9586 22.5223 30.5243 22.2242 30.9513 21.893C31.2715 21.6501 31.6131 21.5287 31.9761 21.5287C32.3603 21.5066 32.6913 21.617 32.9688 21.8599C33.3317 22.1911 33.5239 22.5554 33.5452 22.9529C33.5666 23.3503 33.3958 23.6926 33.0328 23.9796C32.307 24.5758 31.3996 25.0616 30.3108 25.4369C29.2434 25.8123 28.2186 26 27.2366 26Z" fill="#FAFAFA"/>
<path d="M40.4653 14.5401C40.4653 13.2153 40.7749 12.034 41.394 10.9962C42.0345 9.93631 42.8884 9.09724 43.9559 8.47898C45.0233 7.86072 46.1975 7.55159 47.4785 7.55159C48.7594 7.55159 49.7095 7.7724 50.3286 8.21401C50.9691 8.63355 51.2146 9.1414 51.0651 9.73758C51.0011 10.0467 50.873 10.2896 50.6808 10.4662C50.5101 10.6208 50.3072 10.7202 50.0724 10.7643C49.8376 10.8085 49.5814 10.7975 49.3038 10.7312C47.9375 10.4442 46.7099 10.4221 45.6211 10.665C44.5323 10.9079 43.6677 11.3605 43.0272 12.0229C42.4081 12.6853 42.0985 13.5244 42.0985 14.5401H40.4653ZM40.4973 25.8675C39.985 25.8675 39.59 25.735 39.3125 25.4701C39.0349 25.183 38.8962 24.7635 38.8962 24.2115V9.40637C38.8962 8.87643 39.0349 8.46794 39.3125 8.18089C39.59 7.89384 39.985 7.75032 40.4973 7.75032C41.0311 7.75032 41.426 7.89384 41.6822 8.18089C41.9598 8.44586 42.0985 8.85435 42.0985 9.40637V24.2115C42.0985 24.7414 41.9598 25.1499 41.6822 25.4369C41.426 25.724 41.0311 25.8675 40.4973 25.8675Z" fill="#FAFAFA"/>
<path d="M60.4893 26C58.9308 26 57.5325 25.6025 56.2942 24.8076C55.056 23.9907 54.0739 22.8977 53.3481 21.5287C52.6435 20.1376 52.2913 18.5699 52.2913 16.8255C52.2913 15.0811 52.6756 13.5134 53.4441 12.1223C54.234 10.7312 55.2908 9.63822 56.6145 8.84331C57.9595 8.02633 59.4646 7.61783 61.1298 7.61783C62.795 7.61783 64.2895 8.02633 65.6131 8.84331C66.9367 9.63822 67.9828 10.7312 68.7514 12.1223C69.5413 13.5134 69.9363 15.0811 69.9363 16.8255H68.6874C68.6874 18.5699 68.3244 20.1376 67.5986 21.5287C66.894 22.8977 65.9227 23.9907 64.6844 24.8076C63.4462 25.6025 62.0478 26 60.4893 26ZM61.1298 23.0191C62.2186 23.0191 63.19 22.7541 64.0439 22.2242C64.8979 21.6722 65.5704 20.9325 66.0614 20.0051C66.5525 19.0556 66.798 17.9958 66.798 16.8255C66.798 15.6331 66.5525 14.5732 66.0614 13.6459C65.5704 12.6964 64.8979 11.9567 64.0439 11.4268C63.19 10.8747 62.2186 10.5987 61.1298 10.5987C60.0623 10.5987 59.091 10.8747 58.2156 11.4268C57.3617 11.9567 56.6785 12.6964 56.1661 13.6459C55.6751 14.5732 55.4296 15.6331 55.4296 16.8255C55.4296 17.9958 55.6751 19.0556 56.1661 20.0051C56.6785 20.9325 57.3617 21.6722 58.2156 22.2242C59.091 22.7541 60.0623 23.0191 61.1298 23.0191ZM68.3031 25.9006C67.8334 25.9006 67.4384 25.7461 67.1182 25.4369C66.8193 25.1057 66.6699 24.6972 66.6699 24.2115V19.1439L67.2783 15.6331L69.9363 16.8255V24.2115C69.9363 24.6972 69.7762 25.1057 69.4559 25.4369C69.157 25.7461 68.7728 25.9006 68.3031 25.9006Z" fill="#FAFAFA"/>
<path d="M78.9607 25.8675C78.0213 25.8675 77.1887 25.6025 76.4628 25.0726C75.737 24.5427 75.1712 23.8251 74.7656 22.9197C74.36 21.9924 74.1571 20.9325 74.1571 19.7401V1.65605C74.1571 1.17028 74.3066 0.772824 74.6055 0.463694C74.9044 0.154565 75.2886 0 75.7583 0C76.228 0 76.6123 0.154565 76.9112 0.463694C77.2101 0.772824 77.3595 1.17028 77.3595 1.65605V19.7401C77.3595 20.5571 77.509 21.2306 77.8078 21.7605C78.1067 22.2904 78.491 22.5554 78.9607 22.5554H79.7613C80.1883 22.5554 80.5298 22.71 80.786 23.0191C81.0636 23.3282 81.2023 23.7257 81.2023 24.2115C81.2023 24.6972 80.9995 25.0947 80.5939 25.4038C80.1883 25.713 79.6652 25.8675 79.0247 25.8675H78.9607Z" fill="#FAFAFA"/>
<path d="M90.7711 25.8675C89.7037 25.8675 88.743 25.5915 87.889 25.0395C87.0351 24.4654 86.3626 23.6926 85.8715 22.721C85.3805 21.7495 85.135 20.6565 85.135 19.442V3.64331C85.135 3.15754 85.2844 2.76008 85.5833 2.45096C85.8822 2.14183 86.2665 1.98726 86.7362 1.98726C87.2058 1.98726 87.5901 2.14183 87.889 2.45096C88.1879 2.76008 88.3373 3.15754 88.3373 3.64331V19.442C88.3373 20.3253 88.5722 21.065 89.0419 21.6611C89.5115 22.2573 90.088 22.5554 90.7711 22.5554H91.8599C92.2442 22.5554 92.5645 22.71 92.8206 23.0191C93.0982 23.3282 93.237 23.7257 93.237 24.2115C93.237 24.6972 93.0555 25.0947 92.6926 25.4038C92.351 25.713 91.9026 25.8675 91.3476 25.8675H90.7711ZM83.6619 11.2611C83.2136 11.2611 82.8506 11.1287 82.5731 10.8637C82.2956 10.5987 82.1568 10.2675 82.1568 9.87006C82.1568 9.42845 82.2956 9.07516 82.5731 8.81019C82.8506 8.54522 83.2136 8.41274 83.6619 8.41274H91.0593C91.5077 8.41274 91.8706 8.54522 92.1482 8.81019C92.4257 9.07516 92.5645 9.42845 92.5645 9.87006C92.5645 10.2675 92.4257 10.5987 92.1482 10.8637C91.8706 11.1287 91.5077 11.2611 91.0593 11.2611H83.6619Z" fill="#FAFAFA"/>
<path d="M104.553 26C102.995 26 101.596 25.6025 100.358 24.8076C99.1197 23.9907 98.1376 22.8977 97.4118 21.5287C96.7073 20.1376 96.355 18.5699 96.355 16.8255C96.355 15.0811 96.7393 13.5134 97.5078 12.1223C98.2978 10.7312 99.3546 9.63822 100.678 8.84331C102.023 8.02633 103.528 7.61783 105.194 7.61783C106.859 7.61783 108.353 8.02633 109.677 8.84331C111 9.63822 112.047 10.7312 112.815 12.1223C113.605 13.5134 114 15.0811 114 16.8255H112.751C112.751 18.5699 112.388 20.1376 111.662 21.5287C110.958 22.8977 109.986 23.9907 108.748 24.8076C107.51 25.6025 106.112 26 104.553 26ZM105.194 23.0191C106.282 23.0191 107.254 22.7541 108.108 22.2242C108.962 21.6722 109.634 20.9325 110.125 20.0051C110.616 19.0556 110.862 17.9958 110.862 16.8255C110.862 15.6331 110.616 14.5732 110.125 13.6459C109.634 12.6964 108.962 11.9567 108.108 11.4268C107.254 10.8747 106.282 10.5987 105.194 10.5987C104.126 10.5987 103.155 10.8747 102.279 11.4268C101.425 11.9567 100.742 12.6964 100.23 13.6459C99.7388 14.5732 99.4933 15.6331 99.4933 16.8255C99.4933 17.9958 99.7388 19.0556 100.23 20.0051C100.742 20.9325 101.425 21.6722 102.279 22.2242C103.155 22.7541 104.126 23.0191 105.194 23.0191ZM112.367 25.9006C111.897 25.9006 111.502 25.7461 111.182 25.4369C110.883 25.1057 110.734 24.6972 110.734 24.2115V19.1439L111.342 15.6331L114 16.8255V24.2115C114 24.6972 113.84 25.1057 113.52 25.4369C113.221 25.7461 112.836 25.9006 112.367 25.9006Z" fill="#FAFAFA"/>
</svg>
