<svg width="191" height="44" viewBox="0 0 191 44" fill="none" xmlns="http://www.w3.org/2000/svg">
<path d="M2.34397 42.9999C1.65997 42.9999 1.10197 42.7839 0.669973 42.3519C0.237973 41.9199 0.0219727 41.3619 0.0219727 40.6779V3.14793C0.0219727 2.46393 0.237973 1.90593 0.669973 1.47393C1.10197 1.04193 1.65997 0.825928 2.34397 0.825928H13.144C15.808 0.825928 18.166 1.41993 20.218 2.60793C22.306 3.75993 23.926 5.37993 25.078 7.46793C26.23 9.51993 26.806 11.9139 26.806 14.6499C26.806 17.2779 26.23 19.6179 25.078 21.6699C23.926 23.6859 22.306 25.2879 20.218 26.4759C18.166 27.6279 15.808 28.2039 13.144 28.2039H4.66597V40.6779C4.66597 41.3619 4.44997 41.9199 4.01797 42.3519C3.58597 42.7839 3.02797 42.9999 2.34397 42.9999ZM4.66597 23.7759H13.144C14.908 23.7759 16.474 23.3979 17.842 22.6419C19.246 21.8499 20.344 20.7699 21.136 19.4019C21.928 17.9979 22.324 16.4139 22.324 14.6499C22.324 12.7779 21.928 11.1399 21.136 9.73593C20.38 8.33193 19.3 7.23393 17.896 6.44193C16.492 5.61393 14.908 5.19993 13.144 5.19993H4.66597V23.7759Z" fill="#141414"/>
<path d="M45.2039 43.2699C42.2519 43.2699 39.6419 42.6399 37.3739 41.3799C35.1059 40.0839 33.3239 38.3019 32.0279 36.0339C30.7319 33.7659 30.0839 31.1739 30.0839 28.2579C30.0839 25.3059 30.6959 22.7139 31.9199 20.4819C33.1439 18.2139 34.8179 16.4319 36.9419 15.1359C39.1019 13.8399 41.5859 13.1919 44.3939 13.1919C47.1299 13.1919 49.5059 13.8219 51.5219 15.0819C53.5739 16.3059 55.1399 18.0159 56.2199 20.2119C57.3359 22.4079 57.8939 24.9099 57.8939 27.7179C57.8939 28.3299 57.6959 28.8339 57.2999 29.2299C56.9039 29.5899 56.3999 29.7699 55.7879 29.7699H33.2159V26.0439H56.0579L53.7359 27.6639C53.7719 25.6839 53.4119 23.9019 52.6559 22.3179C51.8999 20.7339 50.8199 19.4919 49.4159 18.5919C48.0119 17.6919 46.3379 17.2419 44.3939 17.2419C42.3419 17.2419 40.5419 17.7099 38.9939 18.6459C37.4819 19.5819 36.3119 20.8959 35.4839 22.5879C34.6919 24.2439 34.2959 26.1339 34.2959 28.2579C34.2959 30.3819 34.7639 32.2719 35.6999 33.9279C36.6359 35.5839 37.9139 36.8799 39.5339 37.8159C41.1899 38.7519 43.0799 39.2199 45.2039 39.2199C46.4279 39.2199 47.6699 39.0039 48.9299 38.5719C50.2259 38.1399 51.2519 37.5999 52.0079 36.9519C52.4399 36.6279 52.9259 36.4659 53.4659 36.4659C54.0419 36.4299 54.5099 36.5739 54.8699 36.8979C55.4099 37.3659 55.6799 37.8699 55.6799 38.4099C55.7159 38.9499 55.4819 39.4179 54.9779 39.8139C53.7899 40.8219 52.2779 41.6499 50.4419 42.2979C48.6059 42.9459 46.8599 43.2699 45.2039 43.2699Z" fill="#141414"/>
<path d="M66.9233 24.6939C66.9953 22.4979 67.5533 20.5359 68.5973 18.8079C69.6773 17.0439 71.0813 15.6579 72.8093 14.6499C74.5733 13.6419 76.4993 13.1379 78.5873 13.1379C80.4233 13.1379 81.8093 13.4079 82.7453 13.9479C83.7173 14.4879 84.0773 15.2259 83.8253 16.1619C83.7173 16.6659 83.4833 17.0259 83.1233 17.2419C82.7993 17.4579 82.4033 17.5659 81.9353 17.5659C81.5033 17.5659 80.9993 17.5299 80.4233 17.4579C78.2993 17.2059 76.4093 17.3499 74.7533 17.8899C73.1333 18.3939 71.8373 19.2399 70.8653 20.4279C69.8933 21.6159 69.4073 23.0379 69.4073 24.6939H66.9233ZM67.1933 42.9999C66.4733 42.9999 65.9153 42.8019 65.5193 42.4059C65.1233 42.0099 64.9253 41.4519 64.9253 40.7319V15.7299C64.9253 15.0099 65.1233 14.4519 65.5193 14.0559C65.9153 13.6599 66.4733 13.4619 67.1933 13.4619C67.9133 13.4619 68.4533 13.6599 68.8133 14.0559C69.2093 14.4519 69.4073 15.0099 69.4073 15.7299V40.7319C69.4073 41.4519 69.2093 42.0099 68.8133 42.4059C68.4533 42.8019 67.9133 42.9999 67.1933 42.9999Z" fill="#141414"/>
<path d="M100.768 43.2699C98.0323 43.2699 95.5843 42.6219 93.4243 41.3259C91.2643 39.9939 89.5543 38.1939 88.2943 35.9259C87.0343 33.6579 86.4043 31.1019 86.4043 28.2579C86.4043 25.3779 87.0523 22.8039 88.3483 20.5359C89.6803 18.2679 91.4803 16.4859 93.7483 15.1899C96.0163 13.8579 98.5723 13.1919 101.416 13.1919C104.224 13.1919 106.744 13.8579 108.976 15.1899C111.244 16.4859 113.026 18.2679 114.322 20.5359C115.654 22.8039 116.338 25.3779 116.374 28.2579L114.538 29.1759C114.538 31.8399 113.926 34.2339 112.702 36.3579C111.514 38.4819 109.876 40.1739 107.788 41.4339C105.736 42.6579 103.396 43.2699 100.768 43.2699ZM101.416 39.1659C103.432 39.1659 105.214 38.6979 106.762 37.7619C108.346 36.7899 109.588 35.4759 110.488 33.8199C111.424 32.1639 111.892 30.3099 111.892 28.2579C111.892 26.1699 111.424 24.3159 110.488 22.6959C109.588 21.0399 108.346 19.7259 106.762 18.7539C105.214 17.7819 103.432 17.2959 101.416 17.2959C99.4363 17.2959 97.6363 17.7819 96.0163 18.7539C94.4323 19.7259 93.1723 21.0399 92.2363 22.6959C91.3003 24.3159 90.8323 26.1699 90.8323 28.2579C90.8323 30.3099 91.3003 32.1639 92.2363 33.8199C93.1723 35.4759 94.4323 36.7899 96.0163 37.7619C97.6363 38.6979 99.4363 39.1659 101.416 39.1659ZM114.052 42.9999C113.404 42.9999 112.846 42.8019 112.378 42.4059C111.946 41.9739 111.73 41.4159 111.73 40.7319V31.8219L112.756 27.1239L116.374 28.2579V40.7319C116.374 41.4159 116.158 41.9739 115.726 42.4059C115.294 42.8019 114.736 42.9999 114.052 42.9999Z" fill="#141414"/>
<path d="M131.05 42.9999C129.538 42.9999 128.206 42.6039 127.054 41.8119C125.902 40.9839 125.002 39.8499 124.354 38.4099C123.706 36.9699 123.382 35.3139 123.382 33.4419V3.09393C123.382 2.40993 123.58 1.86993 123.976 1.47393C124.408 1.04193 124.966 0.825928 125.65 0.825928C126.298 0.825928 126.82 1.04193 127.216 1.47393C127.648 1.86993 127.864 2.40993 127.864 3.09393V33.4419C127.864 34.9179 128.152 36.1419 128.728 37.1139C129.34 38.0499 130.114 38.5179 131.05 38.5179H132.4C132.976 38.5179 133.444 38.7339 133.804 39.1659C134.164 39.5619 134.344 40.0839 134.344 40.7319C134.344 41.4159 134.074 41.9739 133.534 42.4059C133.03 42.8019 132.364 42.9999 131.536 42.9999H131.05Z" fill="#141414"/>
<path d="M151.305 42.9999C149.433 42.9999 147.759 42.5499 146.283 41.6499C144.807 40.7499 143.637 39.5079 142.773 37.9239C141.945 36.3399 141.531 34.5579 141.531 32.5779V6.33393C141.531 5.68593 141.729 5.14593 142.125 4.71393C142.557 4.28193 143.115 4.06593 143.799 4.06593C144.447 4.06593 144.987 4.28193 145.419 4.71393C145.851 5.14593 146.067 5.68593 146.067 6.33393V32.5779C146.067 34.2699 146.553 35.6739 147.525 36.7899C148.533 37.9059 149.793 38.4639 151.305 38.4639H152.925C153.501 38.4639 153.987 38.6799 154.383 39.1119C154.779 39.5439 154.977 40.0839 154.977 40.7319C154.977 41.4159 154.725 41.9739 154.221 42.4059C153.753 42.8019 153.141 42.9999 152.385 42.9999H151.305ZM138.345 18.4839C137.733 18.4839 137.229 18.3039 136.833 17.9439C136.437 17.5479 136.239 17.0799 136.239 16.5399C136.239 15.9639 136.437 15.4959 136.833 15.1359C137.229 14.7399 137.733 14.5419 138.345 14.5419H151.683C152.295 14.5419 152.799 14.7399 153.195 15.1359C153.591 15.4959 153.789 15.9639 153.789 16.5399C153.789 17.0799 153.591 17.5479 153.195 17.9439C152.799 18.3039 152.295 18.4839 151.683 18.4839H138.345Z" fill="#141414"/>
<path d="M174.544 43.2699C171.808 43.2699 169.36 42.6219 167.2 41.3259C165.04 39.9939 163.33 38.1939 162.07 35.9259C160.81 33.6579 160.18 31.1019 160.18 28.2579C160.18 25.3779 160.828 22.8039 162.124 20.5359C163.456 18.2679 165.256 16.4859 167.524 15.1899C169.792 13.8579 172.348 13.1919 175.192 13.1919C178 13.1919 180.52 13.8579 182.752 15.1899C185.02 16.4859 186.802 18.2679 188.098 20.5359C189.43 22.8039 190.114 25.3779 190.15 28.2579L188.314 29.1759C188.314 31.8399 187.702 34.2339 186.478 36.3579C185.29 38.4819 183.652 40.1739 181.564 41.4339C179.512 42.6579 177.172 43.2699 174.544 43.2699ZM175.192 39.1659C177.208 39.1659 178.99 38.6979 180.538 37.7619C182.122 36.7899 183.364 35.4759 184.264 33.8199C185.2 32.1639 185.668 30.3099 185.668 28.2579C185.668 26.1699 185.2 24.3159 184.264 22.6959C183.364 21.0399 182.122 19.7259 180.538 18.7539C178.99 17.7819 177.208 17.2959 175.192 17.2959C173.212 17.2959 171.412 17.7819 169.792 18.7539C168.208 19.7259 166.948 21.0399 166.012 22.6959C165.076 24.3159 164.608 26.1699 164.608 28.2579C164.608 30.3099 165.076 32.1639 166.012 33.8199C166.948 35.4759 168.208 36.7899 169.792 37.7619C171.412 38.6979 173.212 39.1659 175.192 39.1659ZM187.828 42.9999C187.18 42.9999 186.622 42.8019 186.154 42.4059C185.722 41.9739 185.506 41.4159 185.506 40.7319V31.8219L186.532 27.1239L190.15 28.2579V40.7319C190.15 41.4159 189.934 41.9739 189.502 42.4059C189.07 42.8019 188.512 42.9999 187.828 42.9999Z" fill="#141414"/>
</svg>
