<svg width="50" height="50" viewBox="0 0 50 50" fill="none" xmlns="http://www.w3.org/2000/svg">
<path d="M39.5832 12.5H33.3332V10.4167C33.3332 9.3116 32.8942 8.25179 32.1128 7.47039C31.3314 6.68899 30.2716 6.25 29.1665 6.25H20.8332C19.7281 6.25 18.6683 6.68899 17.8869 7.47039C17.1055 8.25179 16.6665 9.3116 16.6665 10.4167V12.5H10.4165C8.7589 12.5 7.16919 13.1585 5.99709 14.3306C4.82498 15.5027 4.1665 17.0924 4.1665 18.75V37.5C4.1665 39.1576 4.82498 40.7473 5.99709 41.9194C7.16919 43.0915 8.7589 43.75 10.4165 43.75H39.5832C41.2408 43.75 42.8305 43.0915 44.0026 41.9194C45.1747 40.7473 45.8332 39.1576 45.8332 37.5V18.75C45.8332 17.0924 45.1747 15.5027 44.0026 14.3306C42.8305 13.1585 41.2408 12.5 39.5832 12.5ZM20.8332 10.4167H29.1665V12.5H20.8332V10.4167ZM41.6665 37.5C41.6665 38.0525 41.447 38.5824 41.0563 38.9731C40.6656 39.3638 40.1357 39.5833 39.5832 39.5833H10.4165C9.86397 39.5833 9.33407 39.3638 8.94337 38.9731C8.55266 38.5824 8.33317 38.0525 8.33317 37.5V27.0833H16.6665V29.1667C16.6665 29.7192 16.886 30.2491 17.2767 30.6398C17.6674 31.0305 18.1973 31.25 18.7498 31.25C19.3024 31.25 19.8323 31.0305 20.223 30.6398C20.6137 30.2491 20.8332 29.7192 20.8332 29.1667V27.0833H29.1665V29.1667C29.1665 29.7192 29.386 30.2491 29.7767 30.6398C30.1674 31.0305 30.6973 31.25 31.2498 31.25C31.8024 31.25 32.3323 31.0305 32.723 30.6398C33.1137 30.2491 33.3332 29.7192 33.3332 29.1667V27.0833H41.6665V37.5ZM41.6665 22.9167H8.33317V18.75C8.33317 18.1975 8.55266 17.6676 8.94337 17.2769C9.33407 16.8862 9.86397 16.6667 10.4165 16.6667H39.5832C40.1357 16.6667 40.6656 16.8862 41.0563 17.2769C41.447 17.6676 41.6665 18.1975 41.6665 18.75V22.9167Z" fill="#000"/>
</svg>
