<svg width="50" height="50" viewBox="0 0 50 50" fill="none" xmlns="http://www.w3.org/2000/svg">
<path d="M49 25C49 38.2548 38.2548 49 25 49C11.7452 49 1 38.2548 1 25C1 11.7452 11.7452 1 25 1C38.2548 1 49 11.7452 49 25Z" fill="white"/>
<path d="M8.344 16.976H16.128C18.088 16.976 19.5347 17.3307 20.468 18.04C21.42 18.7307 21.896 19.8787 21.896 21.484C21.896 23.0707 21.252 24.2 19.964 24.872C21.9053 25.5627 22.876 27 22.876 29.184C22.876 32.3947 20.804 34 16.66 34H10.612C10.388 34 10.2013 33.944 10.052 33.832C9.90267 33.7013 9.828 33.5427 9.828 33.356V18.292H8.344C8.15733 18.292 7.99867 18.236 7.868 18.124C7.756 17.9933 7.7 17.8347 7.7 17.648C7.7 17.4613 7.756 17.3027 7.868 17.172C7.99867 17.0413 8.15733 16.976 8.344 16.976ZM11.34 25.684V32.684H16.66C18.2467 32.684 19.4227 32.404 20.188 31.844C20.9533 31.284 21.336 30.3973 21.336 29.184C21.336 26.8507 19.9267 25.684 17.108 25.684H11.34ZM11.34 18.292V24.368H16.772C17.8733 24.368 18.7507 24.1067 19.404 23.584C20.0573 23.0613 20.384 22.296 20.384 21.288C20.384 20.2613 20.0387 19.5053 19.348 19.02C18.6573 18.5347 17.584 18.292 16.128 18.292H11.34Z" fill="black"/>
<path d="M28.4005 33.636V18.292H26.7485C26.5619 18.292 26.4032 18.236 26.2725 18.124C26.1605 17.9933 26.1045 17.8347 26.1045 17.648C26.1045 17.4613 26.1605 17.3027 26.2725 17.172C26.4032 17.0413 26.5619 16.976 26.7485 16.976H35.5405C39.6099 16.976 41.6445 18.8147 41.6445 22.492C41.6445 26.1507 39.6099 27.98 35.5405 27.98H29.9125V33.636C29.9125 33.8227 29.8379 33.972 29.6885 34.084C29.5392 34.2147 29.3619 34.28 29.1565 34.28C28.9512 34.28 28.7739 34.2147 28.6245 34.084C28.4752 33.972 28.4005 33.8227 28.4005 33.636ZM29.9125 18.292V26.692H35.5405C38.6019 26.692 40.1325 25.292 40.1325 22.492C40.1325 19.692 38.6019 18.292 35.5405 18.292H29.9125Z" fill="black"/>
<path d="M49 25C49 38.2548 38.2548 49 25 49C11.7452 49 1 38.2548 1 25C1 11.7452 11.7452 1 25 1C38.2548 1 49 11.7452 49 25Z" stroke="black"/>
<path d="M8.344 16.976H16.128C18.088 16.976 19.5347 17.3307 20.468 18.04C21.42 18.7307 21.896 19.8787 21.896 21.484C21.896 23.0707 21.252 24.2 19.964 24.872C21.9053 25.5627 22.876 27 22.876 29.184C22.876 32.3947 20.804 34 16.66 34H10.612C10.388 34 10.2013 33.944 10.052 33.832C9.90267 33.7013 9.828 33.5427 9.828 33.356V18.292H8.344C8.15733 18.292 7.99867 18.236 7.868 18.124C7.756 17.9933 7.7 17.8347 7.7 17.648C7.7 17.4613 7.756 17.3027 7.868 17.172C7.99867 17.0413 8.15733 16.976 8.344 16.976ZM11.34 25.684V32.684H16.66C18.2467 32.684 19.4227 32.404 20.188 31.844C20.9533 31.284 21.336 30.3973 21.336 29.184C21.336 26.8507 19.9267 25.684 17.108 25.684H11.34ZM11.34 18.292V24.368H16.772C17.8733 24.368 18.7507 24.1067 19.404 23.584C20.0573 23.0613 20.384 22.296 20.384 21.288C20.384 20.2613 20.0387 19.5053 19.348 19.02C18.6573 18.5347 17.584 18.292 16.128 18.292H11.34Z" stroke="black"/>
<path d="M28.4005 33.636V18.292H26.7485C26.5619 18.292 26.4032 18.236 26.2725 18.124C26.1605 17.9933 26.1045 17.8347 26.1045 17.648C26.1045 17.4613 26.1605 17.3027 26.2725 17.172C26.4032 17.0413 26.5619 16.976 26.7485 16.976H35.5405C39.6099 16.976 41.6445 18.8147 41.6445 22.492C41.6445 26.1507 39.6099 27.98 35.5405 27.98H29.9125V33.636C29.9125 33.8227 29.8379 33.972 29.6885 34.084C29.5392 34.2147 29.3619 34.28 29.1565 34.28C28.9512 34.28 28.7739 34.2147 28.6245 34.084C28.4752 33.972 28.4005 33.8227 28.4005 33.636ZM29.9125 18.292V26.692H35.5405C38.6019 26.692 40.1325 25.292 40.1325 22.492C40.1325 19.692 38.6019 18.292 35.5405 18.292H29.9125Z" stroke="black"/>
</svg>
