<svg width="1590" height="1740" viewBox="0 0 1590 1740" fill="none" xmlns="http://www.w3.org/2000/svg">
<g clip-path="url(#clip0_175_2)">
<path d="M68.3896 1005.35C45.8181 898.48 50.3282 787.669 81.5107 682.976C112.693 578.284 169.561 483.023 246.954 405.839" stroke="black" stroke-width="79.9975"/>
<path d="M188.831 198.841C340.158 81.3917 526.75 18.377 718.402 19.9972C910.055 21.6173 1095.55 87.7775 1244.87 207.768" stroke="#141414" stroke-width="40"/>
<path d="M1467.12 479.248C1549.49 638.122 1579.55 818.896 1553.04 995.828C1526.53 1172.76 1444.79 1336.83 1319.46 1464.67C1194.13 1592.51 1031.6 1677.6 855.025 1707.83C678.446 1738.06 496.818 1711.88 336.005 1633.02" stroke="#141414" stroke-width="40"/>
<path d="M18.0338 524.913C82.2202 396.362 180.991 288.203 303.276 212.558C425.56 136.913 566.526 96.7712 710.373 96.6326C854.22 96.4939 995.263 136.364 1117.69 211.773C1240.12 287.182 1339.1 395.151 1403.54 523.578" stroke="black" stroke-width="29.9998"/>
<path d="M1485.01 840.226C1489.68 961.452 1465.73 1082.08 1415.09 1192.35C1364.45 1302.62 1288.54 1399.45 1193.5 1475.01C1098.45 1550.58 986.938 1602.75 867.967 1627.32C748.997 1651.89 625.908 1648.16 508.646 1616.45" stroke="black" stroke-width="29.9998"/>
<path d="M472.212 258.946C600.329 208.992 740.916 200.453 874.151 234.534C1007.39 268.616 1126.55 343.597 1214.84 448.907" stroke="black" stroke-width="79.9975"/>
<path d="M1324.76 870.823C1324.76 1033.36 1260.1 1189.25 1145.01 1304.18C1029.93 1419.11 873.834 1483.68 711.075 1483.68C548.317 1483.68 392.225 1419.11 277.137 1304.18C162.049 1189.25 97.3938 1033.36 97.3938 870.823C97.3938 708.283 162.049 552.401 277.137 437.468C392.225 322.535 548.317 257.966 711.075 257.966C873.834 257.966 1029.93 322.535 1145.01 437.468C1260.1 552.401 1324.76 708.283 1324.76 870.823Z" stroke="black" stroke-width="70.0004"/>
<path d="M340.411 472.19C374.211 440.774 411.877 413.782 452.502 391.864" stroke="#141414" stroke-width="50.0001"/>
<path d="M1505.25 839.664C1511.68 1007.18 1464.83 1172.43 1371.4 1311.71C1277.97 1450.99 1142.77 1557.14 985.195 1614.95C827.616 1672.76 655.752 1679.24 494.252 1633.48C332.752 1587.72 189.912 1492.06 86.2205 1360.23" stroke="black" stroke-width="15.0004"/>
<path d="M269.539 1505.27C206.178 1461.35 149.742 1408.23 102.099 1347.67" stroke="black" stroke-width="29.9998"/>
<path d="M0 515.848C65.9255 383.818 167.404 272.756 293.041 195.13C418.677 117.505 563.497 76.3912 711.237 76.4058C858.978 76.4203 1003.79 117.562 1129.41 195.212C1255.03 272.862 1356.49 383.945 1422.39 515.988" stroke="black" stroke-width="15.0004"/>
<path d="M964.521 1475.18C859.372 1519.07 744.596 1534.9 631.47 1521.09C518.345 1507.29 410.762 1464.33 319.293 1396.44" stroke="black" stroke-width="79.9975"/>
<path d="M1359.65 974.544C1337.53 1111.43 1272.53 1237.8 1174.01 1335.5" stroke="black" stroke-width="79.9975"/>
<path d="M756.945 328.471C860.968 337.238 960.271 375.697 1043.01 439.262" stroke="#141414" stroke-width="50.0001"/>
<path d="M1249.58 949.077C1232.02 1068.28 1175.28 1178.27 1088.3 1261.76" stroke="#141414" stroke-width="50.0001"/>
<path d="M456.293 1350.16C374.628 1306.92 305.337 1243.63 254.955 1166.24" stroke="#141414" stroke-width="50.0001"/>
<path d="M1267.52 951.928C1250.87 1064.76 1200.2 1169.85 1122.27 1253.23C1044.34 1336.6 942.839 1394.3 831.263 1418.66C719.687 1443.02 603.329 1432.88 497.668 1389.58C392.006 1346.29 302.049 1271.89 239.763 1176.3" stroke="#141414" stroke-width="20.0001"/>
<path d="M992.119 440.319C1056.86 482.538 1111.23 538.802 1151.17 604.918C1191.11 671.034 1215.59 745.298 1222.8 822.177C1230.01 899.056 1219.75 976.567 1192.78 1048.94C1165.82 1121.31 1122.86 1186.67 1067.08 1240.15" stroke="#141414" stroke-width="40.0002"/>
<path d="M360.741 494.541C421.562 437.944 495.225 396.927 575.41 375.008C655.595 353.089 739.908 350.923 821.116 368.696" stroke="#141414" stroke-width="40.0002"/>
<path d="M1095.84 982.14C1066.96 1081.11 1000.95 1165.14 911.569 1216.71C822.185 1268.28 716.319 1283.43 616.029 1258.99C515.739 1234.55 428.759 1172.41 373.212 1085.52C317.665 998.632 297.833 893.688 317.85 792.558" stroke="black" stroke-width="30.0004"/>
<path d="M420.618 594.242C476.183 535.879 548.087 495.611 626.932 478.701C705.778 461.791 787.898 469.025 862.561 499.457C937.225 529.89 1000.96 582.105 1045.43 649.281C1089.91 716.456 1113.06 795.466 1111.86 875.987" stroke="black" stroke-width="30.0004"/>
<path d="M339.034 888.665C335.913 826.716 348.353 764.971 375.223 709.048C402.093 653.125 442.54 604.799 492.884 568.466C543.228 532.134 601.87 508.949 663.476 501.021C725.081 493.093 787.694 500.674 845.618 523.074C903.541 545.473 954.936 581.98 995.126 629.274C1035.32 676.567 1063.03 733.145 1075.74 793.86C1088.44 854.575 1085.75 917.5 1067.89 976.909C1050.04 1036.32 1017.59 1090.33 973.496 1134.02" stroke="black" stroke-width="30.0002"/>
<path d="M584.462 696.568C609.049 678.656 637.166 666.162 666.95 659.913C696.735 653.663 727.509 653.8 757.236 660.314C786.964 666.829 814.967 679.572 839.394 697.702C863.821 715.831 884.115 738.934 898.933 765.48C913.75 792.027 922.754 821.413 925.349 851.695C927.943 881.976 924.069 912.462 913.983 941.137C903.897 969.812 887.829 996.021 866.841 1018.03C845.854 1040.04 820.425 1057.35 792.238 1068.81" stroke="#141414" stroke-width="30.0004"/>
<path d="M604.989 1056.64C563.526 1033.11 531.073 996.491 512.736 952.532C494.399 908.573 491.22 859.774 503.699 813.813" stroke="#141414" stroke-width="30.0004"/>
<path d="M596.137 712.764C633.314 685.641 678.903 672.53 724.832 675.754C770.761 678.977 814.065 698.327 847.077 730.377C880.089 762.426 900.678 805.108 905.199 850.863C909.719 896.617 897.879 942.494 871.775 980.367C845.672 1018.24 806.989 1045.67 762.576 1057.79C718.164 1069.92 670.888 1065.95 629.12 1046.61C587.352 1027.26 553.787 993.781 534.37 952.092C514.952 910.404 510.934 863.199 523.028 818.837" stroke="#141414" stroke-width="14.9998"/>
<path d="M640.531 770.304C655.84 759.491 673.434 752.339 691.952 749.4C710.471 746.462 729.419 747.817 747.329 753.359" stroke="black" stroke-width="24.9991"/>
<path d="M810.104 798.286C826.401 820.716 834.571 848.015 833.272 875.697C831.974 903.378 821.284 929.795 802.96 950.606" stroke="black" stroke-width="24.9991"/>
<path d="M730.756 990.499C709.462 993.956 687.632 991.725 667.48 984.034C647.329 976.342 629.574 963.463 616.018 946.704" stroke="black" stroke-width="24.9991"/>
<path d="M590.73 891.185C586.428 866.825 589.637 841.736 599.933 819.238" stroke="black" stroke-width="24.9991"/>
<path d="M572.768 894.142C568.629 870.501 570.634 846.195 578.592 823.549C586.55 800.903 600.194 780.675 618.219 764.801C636.244 748.926 658.047 737.936 681.541 732.882C705.036 727.828 729.436 728.878 752.408 735.933" stroke="black" stroke-width="15.0002"/>
<path d="M646.459 778.828C668.84 762.975 696.274 755.888 723.546 758.914C750.817 761.939 776.024 774.867 794.374 795.239C812.724 815.611 822.938 842.006 823.073 869.406C823.208 896.806 813.255 923.301 795.107 943.852" stroke="black" stroke-width="14.9999"/>
<path d="M1376.54 869.98C1376.54 1046.21 1306.43 1215.22 1181.64 1339.83C1056.85 1464.44 887.603 1534.45 711.125 1534.45C534.647 1534.45 365.397 1464.44 240.608 1339.83C115.82 1215.22 45.714 1046.21 45.714 869.98C45.714 693.752 115.82 524.741 240.608 400.128C365.397 275.516 534.647 205.509 711.125 205.509C887.603 205.509 1056.85 275.516 1181.64 400.128C1306.43 524.741 1376.54 693.752 1376.54 869.98Z" stroke="#141414" stroke-width="10.0003"/>
<path d="M964.011 1472.25C879.357 1507.68 788.181 1524.93 696.413 1522.86C604.644 1520.8 514.34 1499.46 431.373 1460.25" stroke="#141414" stroke-width="14.9999"/>
<path d="M1271.76 533.707C1339.16 645.759 1371.34 775.432 1364.14 905.948" stroke="#141414" stroke-width="14.9999"/>
<path d="M57.6145 894.593C51.9753 745.218 97.8245 598.433 187.506 478.748" stroke="#141414" stroke-width="14.9999"/>
</g>
<defs>
<clipPath id="clip0_175_2">
<rect width="1590" height="1740" fill="white"/>
</clipPath>
</defs>
</svg>
